<svg width="139" height="20" viewBox="0 0 139 20" fill="none" xmlns="http://www.w3.org/2000/svg">
<mask id="mask0_2885_9934" style="mask-type:luminance" maskUnits="userSpaceOnUse" x="-1" y="-1" width="138" height="21">
<path d="M136.239 -0.00323486H-0.0032959V19.6654H136.239V-0.00323486Z" fill="white"/>
</mask>
<g mask="url(#mask0_2885_9934)">
<path d="M28.4273 12.0898V19.2961H26.084V1.74884H38.2114V3.92036H28.4273V9.91821H38.2114V12.0898H28.4273Z" fill="#2C282F"/>
<path d="M41.0494 3.02507C40.786 2.77065 40.6544 2.33062 40.6544 1.70498C40.6544 1.07934 40.7983 0.638934 41.0862 0.383768C41.3742 0.129345 41.7978 0.00213623 42.3572 0.00213623C42.9166 0.00213623 43.3363 0.129345 43.6159 0.383768C43.8949 0.638934 44.0348 1.07934 44.0355 1.70498C44.0355 2.31276 43.8957 2.74871 43.6159 3.0128C43.3363 3.27689 42.9166 3.40856 42.3572 3.40782C41.748 3.40782 41.312 3.28024 41.0494 3.02507ZM41.0985 5.20887H43.5412V19.2958H41.0985V5.20887Z" fill="#2C282F"/>
<path d="M48.1089 18.3957C46.9729 17.5491 46.3067 16.3112 46.1104 14.682H48.7025C48.8513 15.6856 49.3036 16.4258 50.0595 16.9026C50.8152 17.3795 51.7452 17.6183 52.8492 17.6191C54.1495 17.6191 55.0709 17.3843 55.6132 16.9149C56.1555 16.4455 56.427 15.882 56.4278 15.2243C56.434 14.9737 56.3832 14.725 56.2794 14.4968C56.1795 14.2904 56.0252 14.1152 55.833 13.9902C55.3482 13.6822 54.8075 13.4729 54.2418 13.3742C53.5916 13.2448 52.8982 13.1294 52.1618 13.0283C51.5205 12.9301 50.8789 12.8107 50.2369 12.6701C49.6279 12.5427 49.0374 12.3391 48.4794 12.0642C47.9673 11.7984 47.5302 11.4082 47.2084 10.9293C46.887 10.4532 46.7263 9.83608 46.7263 9.07805C46.7247 8.69884 46.7746 8.32122 46.8747 7.95549C46.9733 7.60058 47.1237 7.26215 47.3211 6.95115C47.7325 6.29353 48.3536 5.77278 49.1846 5.38891C50.0156 5.00505 51.0645 4.81163 52.3314 4.80865C54.2395 4.80865 55.6995 5.21186 56.7113 6.01827C57.7229 6.82469 58.3181 7.91045 58.4966 9.27552H56.0528C55.9383 8.43642 55.5682 7.80744 54.9425 7.38858C54.3169 6.96975 53.4368 6.75997 52.3024 6.75922C51.101 6.75922 50.2659 6.9824 49.7972 7.42875C49.3285 7.87511 49.0942 8.38503 49.0942 8.95861C49.0897 9.20104 49.1401 9.44136 49.2415 9.66162C49.3484 9.87718 49.5104 10.0604 49.7113 10.1928C50.2 10.4854 50.7401 10.6819 51.3025 10.7719C51.952 10.8962 52.6472 11.0156 53.3881 11.1302C54.0301 11.2291 54.6718 11.3485 55.313 11.4883C55.9199 11.6161 56.5085 11.8192 57.065 12.0932C57.5725 12.3553 58.0054 12.7414 58.3237 13.2157C58.6361 13.6844 58.7924 14.3056 58.7924 15.0793C58.7949 15.4907 58.7416 15.9007 58.6339 16.2978C58.5265 16.6851 58.3646 17.0552 58.1529 17.397C57.7252 18.0881 57.0713 18.639 56.1912 19.0496C55.3112 19.4602 54.18 19.6659 52.7978 19.6667C50.8071 19.6667 49.2448 19.243 48.1111 18.3957" fill="#2C282F"/>
<path d="M62.8648 17.7649C61.6307 16.5002 61.0136 14.7398 61.0136 12.4835V12.1632C61.007 11.4327 61.0857 10.7039 61.2479 9.99166C61.3966 9.35314 61.6332 8.73839 61.9509 8.16496C62.5314 7.10806 63.4058 6.24215 64.4684 5.67207C65.5783 5.08745 66.8172 4.79086 68.0715 4.80948C69.9314 4.80948 71.4698 5.27852 72.6868 6.21661C73.9039 7.1547 74.6195 8.60237 74.8338 10.5596V10.6121H72.3409V10.5619C72.1438 9.31212 71.6751 8.38666 70.9349 7.78553C70.1947 7.18446 69.2484 6.88429 68.0961 6.88503C66.7473 6.88503 65.6411 7.3418 64.7775 8.25534C63.9138 9.16891 63.4819 10.4708 63.4819 12.1609V12.4321C63.4819 14.0286 63.8888 15.275 64.7027 16.1714C65.5165 17.0678 66.6394 17.5142 68.0715 17.5105C69.2886 17.5105 70.2557 17.2021 70.9728 16.5855C71.6899 15.9688 72.1545 15.0515 72.3665 13.8337V13.8091H74.8595V13.8582C74.6452 15.8489 73.9254 17.3134 72.7002 18.2515C71.475 19.1895 69.9242 19.6582 68.0481 19.6575C65.8274 19.6575 64.1001 19.0251 62.8659 17.7605" fill="#2C282F"/>
<path d="M79.0551 17.7653C77.8214 16.5006 77.2045 14.7401 77.2045 12.4838V12.1636C77.1977 11.4331 77.2764 10.7043 77.4384 9.99203C77.586 9.35684 77.8138 8.743 78.1166 8.16533C78.6971 7.10799 79.5713 6.24191 80.634 5.67246C81.7035 5.09666 82.9123 4.80876 84.2618 4.80876C84.9188 4.80549 85.5728 4.88041 86.2116 5.03194C86.8073 5.17613 87.3803 5.40142 87.9146 5.70147C88.9781 6.27168 89.8493 7.14315 90.4192 8.20666C91.0202 9.30166 91.3199 10.6222 91.3199 12.168V12.4883C91.3252 13.1938 91.2503 13.8976 91.0967 14.5862C90.9581 15.2032 90.7424 15.8004 90.4556 16.3638C89.8902 17.4056 89.0318 18.2591 87.9873 18.8187C86.9352 19.3863 85.6931 19.6701 84.2611 19.6701C82.0229 19.6701 80.2874 19.0378 79.0544 17.7731L79.0551 17.7653ZM87.6664 16.1819C88.4725 15.2795 88.8752 14.0305 88.8752 12.4347V12.1636C88.8752 10.5344 88.4475 9.24701 87.5922 8.30149C86.7362 7.35595 85.6258 6.88282 84.2596 6.88207C82.9108 6.88207 81.8042 7.33848 80.9398 8.25124C80.0762 9.16406 79.6448 10.4682 79.6448 12.1636V12.4347C79.6448 14.0305 80.0535 15.2769 80.8717 16.1741C81.6907 17.0712 82.8215 17.5176 84.2656 17.5131C85.7295 17.5131 86.8648 17.0668 87.6709 16.1741" fill="#2C282F"/>
<path d="M92.7244 19.2963V17.445L102.128 7.2034H93.292V5.20374H105.039V7.10408L95.7853 17.2475H105.114V19.2963H92.7244Z" fill="#2C282F"/>
<path d="M118.099 18.4686C116.947 19.2676 115.499 19.6667 113.755 19.6659C111.419 19.6659 109.663 19.0202 108.487 17.7288C107.31 16.4373 106.722 14.6976 106.722 12.5097V12.213C106.719 11.5115 106.793 10.8119 106.946 10.1273C107.085 9.49917 107.301 8.89032 107.587 8.31402C108.142 7.23342 108.999 6.33746 110.054 5.7352C111.124 5.11775 112.382 4.80901 113.83 4.80901C114.545 4.80247 115.257 4.88532 115.95 5.05563C116.556 5.20466 117.132 5.45519 117.653 5.79658C118.635 6.43165 119.414 7.33522 119.898 8.39993C120.396 9.50478 120.649 10.705 120.637 11.9172V13.0521H109.088C109.169 14.5005 109.622 15.6276 110.445 16.4332C111.267 17.2389 112.404 17.6421 113.854 17.6428C114.874 17.6428 115.729 17.4249 116.42 16.9889C117.111 16.5541 117.619 15.883 117.852 15.1008H120.443C120.031 16.5485 119.25 17.6711 118.1 18.4686H118.099ZM110.584 7.93459C109.753 8.71571 109.263 9.78922 109.116 11.155H118.247C118.148 9.82267 117.728 8.75741 116.988 7.95919C116.249 7.16093 115.204 6.76182 113.854 6.76182C112.505 6.76182 111.415 7.15275 110.584 7.93459Z" fill="#2C282F"/>
<path d="M125.725 19.2951H123.307V5.20368H125.578V8.41185C125.923 7.37305 126.572 6.46177 127.441 5.79622C128.304 5.13933 129.402 4.81015 130.736 4.80865C132.546 4.80865 133.915 5.35172 134.845 6.43785C135.773 7.52398 136.239 8.95531 136.24 10.7318V19.2951H133.82V11.2752C133.82 9.9585 133.528 8.90134 132.944 8.10387C132.36 7.30639 131.386 6.90727 130.019 6.90652C128.638 6.90652 127.577 7.36739 126.837 8.28908C126.096 9.21084 125.725 10.4201 125.721 11.9168L125.725 19.2951Z" fill="#2C282F"/>
<path d="M19.5616 1.74884H-0.0032959V5.00946H19.5616V1.74884Z" fill="#2C282F"/>
<path d="M-0.0032959 19.2961L9.8009 12.0898H-0.0032959V8.82245H19.5616L5.80601 19.2961H-0.0032959Z" fill="#2C282F"/>
</g>
</svg>
